<svg width="480" height="480" xmlns="http://www.w3.org/2000/svg" xmlns:xlink="http://www.w3.org/1999/xlink" xml:space="preserve" overflow="hidden"><defs><clipPath id="clip0"><rect x="358" y="131" width="480" height="480"/></clipPath></defs><g clip-path="url(#clip0)" transform="translate(-358 -131)"><path d="M530.95 453.05 473.85 396 530.95 338.95 545.05 353.05 502.15 396 545.05 438.95 530.95 453.05Z"/><path d="M665.05 453.05 650.95 438.95 693.85 396 650.95 353.05 665.05 338.95 722.15 396 665.05 453.05Z"/><path d="M564.507 452.61 612.343 337.179 630.819 344.836 582.983 460.266Z"/><path d="M398 216 398 526 798 526 798 216ZM743 246C748.523 246 753 250.477 753 256 753 261.523 748.523 266 743 266 737.477 266 733 261.523 733 256 733 250.477 737.477 246 743 246ZM708 246C713.523 246 718 250.477 718 256 718 261.523 713.523 266 708 266 702.477 266 698 261.523 698 256 698 250.477 702.477 246 708 246ZM673 246C678.523 246 683 250.477 683 256 683 261.523 678.523 266 673 266 667.477 266 663 261.523 663 256 663 250.477 667.477 246 673 246ZM768 496 428 496 428 296 768 296Z"/></g></svg>
