<svg width="480" height="480" xmlns="http://www.w3.org/2000/svg" xmlns:xlink="http://www.w3.org/1999/xlink" xml:space="preserve" overflow="hidden"><defs><clipPath id="clip0"><rect x="298" y="120" width="480" height="480"/></clipPath></defs><g clip-path="url(#clip0)" transform="translate(-298 -120)"><path d="M422.5 434.5 408.5 420.5 451.5 377.5 408.5 334.5 422.5 320.5 479.5 377.5Z"/><path d="M338 205 338 515 738 515 738 205 338 205ZM683 235C688.5 235 693 239.5 693 245 693 250.5 688.5 255 683 255 677.5 255 673 250.5 673 245 673 239.5 677.5 235 683 235ZM648 235C653.5 235 658 239.5 658 245 658 250.5 653.5 255 648 255 642.5 255 638 250.5 638 245 638 239.5 642.5 235 648 235ZM613 235C618.5 235 623 239.5 623 245 623 250.5 618.5 255 613 255 607.5 255 603 250.5 603 245 603 239.5 607.5 235 613 235ZM708 485 368 485 368 285 708 285 708 485Z"/><path d="M488 415 568 415 568 435 488 435Z"/></g></svg>
