<svg width="480" height="480" xmlns="http://www.w3.org/2000/svg" xmlns:xlink="http://www.w3.org/1999/xlink" xml:space="preserve" overflow="hidden"><defs><clipPath id="clip0"><rect x="510" y="100" width="480" height="480"/></clipPath></defs><g clip-path="url(#clip0)" transform="translate(-510 -100)"><path d="M755 425C755 430.523 750.523 435 745 435 739.477 435 735 430.523 735 425 735 419.477 739.477 415 745 415 750.523 415 755 419.477 755 425Z"/><path d="M795 425C795 430.523 790.523 435 785 435 779.477 435 775 430.523 775 425 775 419.477 779.477 415 785 415 790.523 415 795 419.477 795 425Z"/><path d="M755 465C755 470.523 750.523 475 745 475 739.477 475 735 470.523 735 465 735 459.477 739.477 455 745 455 750.523 455 755 459.477 755 465Z"/><path d="M795 465C795 470.523 790.523 475 785 475 779.477 475 775 470.523 775 465 775 459.477 779.477 455 785 455 790.523 455 795 459.477 795 465Z"/><path d="M891.5 387.5C873 372 851 363 828 354.5L803.5 344.5C801.5 343.5 800.5 342 800.5 340L800.5 328C819.5 313 830.5 290 830.5 265.5L830.5 235.5 830.5 235.5 830.5 220.5C852.5 204 857 172.5 840.5 150.5 829 135 810 128 791 131.5 775 109 744 104 721.5 120 717 123 713 127 710 131.5 683 126.5 656.5 144 651.5 171 647.5 189.5 655 208.5 670 220L670 250 670 250 670 265C670 289 681 312 700 327.5L700 340C700 342 699 344 697 344.5L672.5 354.5C649.5 362.5 627.5 372 609 387.5 597 396.5 590.5 410 590 425L590 513 594.5 516C619 532.5 685.5 540.5 751.5 540.5 818 540.5 884 532 906 515.5L910 512.5 910 425C909.5 410 903 396.5 891.5 387.5ZM700 150C707.5 150 714.5 153 720 158 721 141.5 735.5 129 752 130.5 767 131.5 778.5 143.5 779.5 158 792 147 810.5 148 822 160 833 172.5 832 191 820 202.5 817 205 813.5 207 810 208.5L810 230 690 230 690 208.5C674.5 203 666.5 186 672 170 676 158 687.5 150 700 150ZM690 265 690 250 810 250 810 265C810 298 783 325 750 325 717 325 690 298 690 265ZM750 345C760.5 345 770.5 343 780 339L780 339.5C780 347 783.5 354.5 789.5 359.5 777 363.5 763.5 365 750 365 736.5 365 723 363 710 359.5 716 355 719.5 347.5 719.5 339.5L719.5 339C729.5 343 739.5 345 750 345ZM610 425C610 416 614.5 408 621.5 402.5 638 389 658 380.5 679 373L679 373 679.5 372.5C682 371.5 684 371 686.5 370 687.5 370.5 689 371.5 690 372L690 517C655.5 514 625.5 509 610 501L610 425ZM890 502C862.5 517 780 522.5 710 519L710 380C723 383.5 736.5 385 750 385 775.5 385 798.5 379.5 813.5 370.5 816 371.5 818 372 820.5 373L821.5 373.5 821.5 373.5C842.5 381 862.5 389.5 879 403 886 408.5 890 416.5 890 425L890 502Z"/></g></svg>
