<svg width="480" height="480" xmlns="http://www.w3.org/2000/svg" xmlns:xlink="http://www.w3.org/1999/xlink" xml:space="preserve" overflow="hidden"><defs><clipPath id="clip0"><rect x="364" y="152" width="480" height="480"/></clipPath></defs><g clip-path="url(#clip0)" transform="translate(-364 -152)"><path d="M803 194C796 187 751 195 713.5 205 727 213 741 224 754.5 237.5 768.5 251.5 779.5 265.5 787.5 279.5 797.5 241 810.5 201 803 194Z"/><path d="M524.5 336.5 507.5 330C500.5 327.5 493 329 487.5 334L408 413.5C395 426.5 407 449 425 445L491.5 430C497 405 506 371.5 524.5 336.5Z"/><path d="M657 467C623.5 484.5 591.5 494 565.5 499L550 570C546 588 568 600.5 581.5 587L661 507.5C666 502.5 668 494.5 665 487.5L657 467Z"/><path d="M686.5 214C657 226 623.5 246.5 591 279 531.5 338.5 514 410.5 509 451.5L540 482.5C581 477.5 653.5 460.5 713 401 745.5 368.5 766 335.5 778 306 771.5 289.5 758.5 270 740 251 722 233.5 703 220.5 686.5 214ZM712 322C700.5 333.5 681.5 333.5 669.5 322 658 310.5 658 291.5 669.5 279.5 681 268 700 268 712 279.5 723.5 291.5 723.5 310.5 712 322Z"/><path d="M508.5 483C500.5 475 501.5 461.5 485 478 468.5 494.5 444 532 451.5 540 459.5 548 497 523 513.5 506.5 530 489.5 516.5 490.5 508.5 483Z"/></g></svg>
