<?xml version="1.0" encoding="UTF-8" standalone="no"?>
<svg xmlns:dc="http://purl.org/dc/elements/1.1/" xmlns:cc="http://creativecommons.org/ns#" xmlns:rdf="http://www.w3.org/1999/02/22-rdf-syntax-ns#" xmlns:svg="http://www.w3.org/2000/svg" xmlns="http://www.w3.org/2000/svg" xmlns:sodipodi="http://sodipodi.sourceforge.net/DTD/sodipodi-0.dtd" xmlns:inkscape="http://www.inkscape.org/namespaces/inkscape" width="12pt" height="12pt" viewBox="0 0 12 12" version="1.1" id="svg7" sodipodi:docname="Aluminium symbol (Dalton).svg" inkscape:version="0.92.5 (2060ec1f9f, 2020-04-08)">
  <metadata id="metadata13">
    <rdf:RDF>
      <cc:Work rdf:about="">
        <dc:format>image/svg+xml</dc:format>
        <dc:type rdf:resource="http://purl.org/dc/dcmitype/StillImage"/>
      </cc:Work>
    </rdf:RDF>
  </metadata>
  <defs id="defs11"/>
  <sodipodi:namedview pagecolor="#ffffff" bordercolor="#666666" borderopacity="1" objecttolerance="10" gridtolerance="10" guidetolerance="10" inkscape:pageopacity="0" inkscape:pageshadow="2" inkscape:window-width="1920" inkscape:window-height="1015" id="namedview9" showgrid="false" inkscape:zoom="29.5" inkscape:cx="7.6460489" inkscape:cy="12.40678" inkscape:window-x="0" inkscape:window-y="0" inkscape:window-maximized="1" inkscape:current-layer="svg7" inkscape:snap-midpoints="true" inkscape:snap-smooth-nodes="false" inkscape:snap-object-midpoints="true" inkscape:object-nodes="false" inkscape:snap-center="true"/>
  <path inkscape:connector-curvature="0" id="path4" d="M 3.5,10.330127 C 5.8917186,11.710986 8.9492676,10.891719 10.330127,8.5 11.710986,6.1082814 10.891719,3.0507326 8.5,1.669873 8.1062276,1.4425284 7.6944069,1.2748211 7.2749922,1.1639499 6.8555775,1.0530788 6.4285687,0.99904383 6.0044201,0.99904383 5.140459,0.99904383 4.2883648,1.2232394 3.5364896,1.6479568 2.7846143,2.0726741 2.1329581,2.6979131 1.669873,3.5 0.28901359,5.8917186 1.1082814,8.9492676 3.5,10.330127 Z" style="fill:none;stroke:#000000;stroke-width:0.3;stroke-linecap:butt;stroke-linejoin:miter;stroke-miterlimit:5.5;stroke-opacity:1;stroke-dasharray:none" sodipodi:nodetypes="ssssssss"/>
  <path style="fill:none;stroke:#000000;stroke-width:0.3;stroke-linecap:butt;stroke-linejoin:miter;stroke-miterlimit:5.5;stroke-dasharray:none;stroke-opacity:1" d="M 1.6787134,8.4999997 10.330127,8.5" id="path819" inkscape:connector-curvature="0" sodipodi:nodetypes="cc"/>
  <path style="fill:none;stroke:#000000;stroke-width:0.3;stroke-linecap:butt;stroke-linejoin:miter;stroke-miterlimit:5.5;stroke-dasharray:none;stroke-opacity:1" d="M 6.0044201,0.99904383 8.1672735,4.7495219 10.330127,8.5" id="path819-1" inkscape:connector-curvature="0" sodipodi:nodetypes="ccc"/>
  <path style="fill:none;stroke:#000000;stroke-width:0.3;stroke-linecap:butt;stroke-linejoin:miter;stroke-miterlimit:5.5;stroke-dasharray:none;stroke-opacity:1" d="M 6.0044201,0.99904383 3.8415668,4.7495218 1.6787134,8.4999997" id="path819-1-2" inkscape:connector-curvature="0" sodipodi:nodetypes="ccc"/>
  <path style="fill:none;stroke:#000000;stroke-width:0.3;stroke-linecap:butt;stroke-linejoin:miter;stroke-miterlimit:5.5;stroke-dasharray:none;stroke-opacity:1" d="m 3.9968952,4.4843827 4.01505,10e-8" id="path819-1-7" inkscape:connector-curvature="0" sodipodi:nodetypes="cc"/>
  <path style="fill:none;stroke:#000000;stroke-width:0.3;stroke-linecap:butt;stroke-linejoin:miter;stroke-miterlimit:5.5;stroke-dasharray:none;stroke-opacity:1" d="m 3.9968952,4.4843827 -10e-8,4.0150499" id="path819-1-7-3" inkscape:connector-curvature="0" sodipodi:nodetypes="cc"/>
  <path style="fill:none;stroke:#000000;stroke-width:0.3;stroke-linecap:butt;stroke-linejoin:miter;stroke-miterlimit:5.5;stroke-dasharray:none;stroke-opacity:1" d="m 8.0119452,4.4843828 -10e-8,4.0150498" id="path819-1-7-3-6" inkscape:connector-curvature="0" sodipodi:nodetypes="cc"/>
  <path inkscape:connector-curvature="0" id="path4-0" d="M 5.0009246,8.2307259 C 5.9609564,8.7850011 7.1882513,8.4561481 7.7425258,7.4961165 8.2967998,6.5360847 7.9679475,5.30879 7.0079159,4.7545153 6.8498564,4.6632593 6.6845523,4.5959422 6.5161999,4.5514387 6.3478476,4.5069347 6.1764471,4.4852457 6.0061945,4.4852457 c -0.3467924,0 -0.6888216,0.089992 -0.990623,0.2604725 C 4.7137701,4.9161989 4.4521965,5.1671688 4.2663148,5.4891251 3.7120404,6.4491567 4.0408932,7.6764515 5.0009246,8.2307259 Z" style="fill:none;stroke:#000000;stroke-width:0.3;stroke-linecap:butt;stroke-linejoin:miter;stroke-miterlimit:5.5;stroke-dasharray:none;stroke-opacity:1" sodipodi:nodetypes="ssssssss"/>
</svg>