<svg width="480" height="480" xmlns="http://www.w3.org/2000/svg" xmlns:xlink="http://www.w3.org/1999/xlink" xml:space="preserve" overflow="hidden"><defs><clipPath id="clip0"><rect x="280" y="100" width="480" height="480"/></clipPath></defs><g clip-path="url(#clip0)" transform="translate(-280 -100)"><path d="M508.05 440.7C508.05 453.237 497.887 463.4 485.35 463.4 472.813 463.4 462.65 453.237 462.65 440.7 462.65 428.163 472.813 418 485.35 418 497.887 418 508.05 428.163 508.05 440.7Z"/><path d="M530 515 530 492.3C529.926 488.763 528.276 485.443 525.5 483.25 518.977 478.222 511.513 474.55 503.55 472.45 497.539 470.605 491.288 469.661 485 469.65 478.719 469.747 472.479 470.689 466.45 472.45 458.575 474.781 451.152 478.434 444.5 483.25 441.724 485.443 440.074 488.763 440 492.3L440 515Z"/><path d="M607.35 440.7C607.35 453.237 597.187 463.4 584.65 463.4 572.113 463.4 561.95 453.237 561.95 440.7 561.95 428.163 572.113 418 584.65 418 597.187 418 607.35 428.163 607.35 440.7Z"/><path d="M630 515 630 492.3C629.926 488.763 628.276 485.443 625.5 483.25 618.977 478.222 611.513 474.55 603.55 472.45 597.539 470.605 591.287 469.661 585 469.65 578.719 469.747 572.479 470.689 566.45 472.45 558.575 474.781 551.152 478.434 544.5 483.25 541.724 485.443 540.074 488.763 540 492.3L540 515Z"/><path d="M707.35 440.7C707.35 453.237 697.187 463.4 684.65 463.4 672.113 463.4 661.95 453.237 661.95 440.7 661.95 428.163 672.113 418 684.65 418 697.187 418 707.35 428.163 707.35 440.7Z"/><path d="M730 515 730 492.3C729.926 488.763 728.276 485.443 725.5 483.25 718.977 478.222 711.513 474.55 703.55 472.45 697.539 470.605 691.287 469.661 685 469.65 678.719 469.747 672.479 470.689 666.45 472.45 658.575 474.781 651.152 478.434 644.5 483.25 641.724 485.443 640.074 488.763 640 492.3L640 515Z"/><path d="M417.1 230.8C417.1 247.203 403.803 260.5 387.4 260.5 370.997 260.5 357.7 247.203 357.7 230.8 357.7 214.397 370.997 201.1 387.4 201.1 403.803 201.1 417.1 214.397 417.1 230.8Z"/><path d="M562.55 219.35C559.61 216.452 554.89 216.452 551.95 219.35L487.35 283.95C482.188 282.493 476.639 283.904 472.8 287.65 471.75 288.7 453.1 319.2 453.1 319.2L447.5 295.35C446.758 292.275 445.224 289.448 443.05 287.15 433.835 279.701 423.229 274.16 411.85 270.85 403.806 269.13 395.622 268.142 387.4 267.9 379.104 268.028 370.863 269.272 362.9 271.6 351.419 274.61 340.768 280.183 331.75 287.9 329.556 290.184 328.019 293.016 327.3 296.1 327.3 296.1 305.75 386.6 305.75 388.1 305.75 396.385 312.466 403.1 320.75 403.1 327.389 402.93 333.125 398.414 334.85 392L350.45 327.45 350.45 535 380 535 380 401.45 395 401.45 395 535 424.5 535 424.5 326.5 430 350C430.382 351.625 431.461 352.997 432.95 353.75 438.7 358.163 445.704 360.632 452.95 360.8 457.668 361.461 462.343 359.337 464.95 355.35L495.45 305.35C497.4 302.276 498.131 298.585 497.5 295L562.5 230C565.444 227.068 565.466 222.309 562.55 219.35Z"/><path d="M665 150 420 150C408.954 150 400 158.954 400 170L400 188C407.645 190.081 414.566 194.234 420 200L420 170 665 170 665 335 494.35 335 482.15 355 665 355C676.046 355 685 346.046 685 335L685 170C685 158.954 676.046 150 665 150Z"/></g></svg>
