<svg width="480" height="480" xmlns="http://www.w3.org/2000/svg" xmlns:xlink="http://www.w3.org/1999/xlink" xml:space="preserve" overflow="hidden"><defs><clipPath id="clip0"><rect x="395" y="100" width="480" height="480"/></clipPath></defs><g clip-path="url(#clip0)" transform="translate(-395 -100)"><path d="M825 210 825 455 445 455 445 210 415 210 415 490 590 490C590 498.5 596.5 505 605 505L665 505C673.5 505 680 498.5 680 490L855 490 855 210 825 210Z"/><path d="M805 180 465 180 465 435 805 435 805 180ZM495 210 625 210 625 405 495 405 495 210ZM775 405 645 405 645 210 775 210 775 405Z"/><path d="M675 260 745 260 745 275 675 275Z"/><path d="M675 290 745 290 745 305 675 305Z"/><path d="M675 320 723.5 320 723.5 335 675 335Z"/></g></svg>